<svg xmlns="http://www.w3.org/2000/svg" viewBox="0 0 400 250" fill="none">
  <defs>
    <linearGradient id="bgGrad" x1="0%" y1="0%" x2="100%" y2="100%">
      <stop offset="0%" style="stop-color:#ecfeff"/>
      <stop offset="100%" style="stop-color:#f0f9ff"/>
    </linearGradient>
  </defs>
  <rect width="400" height="250" fill="url(#bgGrad)"/>
  <!-- Calendar Icon -->
  <rect x="150" y="70" width="100" height="90" rx="8" fill="#0891b2" opacity="0.15"/>
  <rect x="150" y="70" width="100" height="25" rx="8" fill="#0891b2" opacity="0.3"/>
  <rect x="150" y="85" width="100" height="5" fill="#0891b2" opacity="0.3"/>
  <circle cx="170" cy="60" r="5" fill="#0891b2" opacity="0.4"/>
  <circle cx="230" cy="60" r="5" fill="#0891b2" opacity="0.4"/>
  <rect x="165" y="55" width="4" height="25" rx="2" fill="#0891b2" opacity="0.35"/>
  <rect x="231" y="55" width="4" height="25" rx="2" fill="#0891b2" opacity="0.35"/>
  <!-- Calendar grid -->
  <rect x="162" y="105" width="16" height="14" rx="2" fill="#0891b2" opacity="0.2"/>
  <rect x="185" y="105" width="16" height="14" rx="2" fill="#0891b2" opacity="0.2"/>
  <rect x="208" y="105" width="16" height="14" rx="2" fill="#0891b2" opacity="0.2"/>
  <rect x="231" y="105" width="16" height="14" rx="2" fill="#0891b2" opacity="0.2"/>
  <rect x="162" y="125" width="16" height="14" rx="2" fill="#0891b2" opacity="0.2"/>
  <rect x="185" y="125" width="16" height="14" rx="2" fill="#0891b2" opacity="0.35"/>
  <rect x="208" y="125" width="16" height="14" rx="2" fill="#0891b2" opacity="0.2"/>
  <rect x="231" y="125" width="16" height="14" rx="2" fill="#0891b2" opacity="0.2"/>
  <rect x="162" y="145" width="16" height="14" rx="2" fill="#0891b2" opacity="0.2"/>
  <rect x="185" y="145" width="16" height="14" rx="2" fill="#0891b2" opacity="0.2"/>
  <text x="200" y="200" font-family="Arial, sans-serif" font-size="14" fill="#0891b2" opacity="0.5" text-anchor="middle">Event</text>
</svg>
